<?xml version="1.0" encoding="iso-8859-1"?>
<!-- Generator: Adobe Illustrator 18.0.0, SVG Export Plug-In . SVG Version: 6.00 Build 0)  -->
<!DOCTYPE svg PUBLIC "-//W3C//DTD SVG 1.1//EN" "http://www.w3.org/Graphics/SVG/1.1/DTD/svg11.dtd">
<svg version="1.1" id="Capa_1" xmlns="http://www.w3.org/2000/svg" xmlns:xlink="http://www.w3.org/1999/xlink" x="0px" y="0px"
	 viewBox="0 0 297 297" style="enable-background:new 0 0 297 297;" xml:space="preserve">
<g>
	<path d="M74.062,71.146c1.264-0.847,2.728-1.275,4.196-1.275c1.216,0,2.436,0.295,3.548,0.888c2.456,1.31,3.989,3.867,3.989,6.65
		v73.412c0,3.978,3.237,7.215,7.215,7.215c3.979,0,7.216-3.237,7.216-7.215V99.397c0-2.213,0.973-4.315,2.661-5.748
		c1.686-1.432,3.914-2.049,6.103-1.69c2.03,0.335,4.099,0.505,6.15,0.505c13.371,0,25.839-7.212,32.536-18.822
		c1.042-1.807,2.788-3.102,4.82-3.575c2.034-0.471,4.171-0.081,5.904,1.079c3.21,2.15,6.957,3.286,10.837,3.286
		c10.757,0,19.51-8.752,19.51-19.511c0-10.758-8.752-19.511-19.51-19.511c-3.88,0-7.627,1.137-10.837,3.286
		c-1.732,1.161-3.87,1.553-5.904,1.079c-2.033-0.473-3.778-1.768-4.82-3.575c-6.699-11.61-19.165-18.823-32.536-18.823
		c-13.37,0-25.837,7.212-32.535,18.823c-1.042,1.807-2.787,3.102-4.82,3.575c-2.033,0.474-4.171,0.082-5.904-1.079
		c-3.21-2.149-6.957-3.286-10.837-3.286c-10.759,0-19.511,8.752-19.511,19.511c0,10.758,8.752,19.511,19.511,19.511
		C65.593,74.433,71.31,72.99,74.062,71.146z"/>
	<path d="M0,119.384v50.108c0,15.066,12.257,27.324,27.323,27.324h13.888v-20.102H27.323c-3.982,0-7.222-3.24-7.222-7.222v-50.108
		c0-3.982,3.24-7.221,7.222-7.221h13.888V92.062H27.323C12.257,92.062,0,104.319,0,119.384z"/>
	<path d="M216.551,118.724c-44.36,0-80.448,36.089-80.448,80.448c0,44.36,36.089,80.449,80.448,80.449S297,243.532,297,199.172
		C297,154.812,260.91,118.724,216.551,118.724z M216.551,177.175c-6.074,0-10.998-4.924-10.998-10.998
		c0-6.074,4.924-10.998,10.998-10.998c6.074,0,10.998,4.924,10.998,10.998C227.549,172.251,222.625,177.175,216.551,177.175z
		 M238.548,210.171c-6.074,0-10.998-4.924-10.998-10.998c0-6.074,4.924-10.998,10.998-10.998c6.074,0,10.998,4.924,10.998,10.998
		C249.546,205.246,244.622,210.171,238.548,210.171z M260.545,177.175c-6.074,0-10.998-4.924-10.998-10.998
		c0-6.074,4.924-10.998,10.998-10.998c6.074,0,10.998,4.924,10.998,10.998C271.543,172.251,266.619,177.175,260.545,177.175z"/>
	<path d="M173.994,113.669V89.174c-1.556,0.215-3.142,0.335-4.757,0.335c-4.329,0-8.565-0.799-12.532-2.343
		c-9.858,12.673-25.145,20.324-41.403,20.374v43.281c0,12.292-10.001,22.291-22.292,22.291s-22.291-10-22.291-22.291V88.373
		c-3.429,0.771-6.83,1.136-9.675,1.136c-1.614,0-3.2-0.12-4.757-0.335v111.558c0,17.133,13.94,31.073,31.073,31.073h39.409
		c-3.714-10.187-5.743-21.177-5.743-32.633C121.026,161.782,142.623,129.346,173.994,113.669z"/>
</g>
<g>
</g>
<g>
</g>
<g>
</g>
<g>
</g>
<g>
</g>
<g>
</g>
<g>
</g>
<g>
</g>
<g>
</g>
<g>
</g>
<g>
</g>
<g>
</g>
<g>
</g>
<g>
</g>
<g>
</g>
</svg>
